<?xml version="1.0" standalone="no"?><!DOCTYPE svg PUBLIC "-//W3C//DTD SVG 1.1//EN" "http://www.w3.org/Graphics/SVG/1.1/DTD/svg11.dtd"><svg class="icon" height="512" viewBox="0 0 1024 1024" version="1.1" xmlns="http://www.w3.org/2000/svg"><path d="M107.52 906.24c-39.936 0-72.192-32.768-72.192-73.216V86.016C34.816 46.08 67.584 13.312 107.52 13.312h658.432c39.936 0 72.192 32.768 72.192 73.216V373.76c0 14.336-11.776 26.112-26.624 26.112h-5.632c-14.336 0-25.6-11.776-25.6-26.112V97.28c0-14.336-11.776-26.112-26.112-26.112H118.272c-14.336 0-26.112 11.776-26.112 26.112v724.48c0 14.336 11.776 26.112 26.112 26.112h476.16c14.336 0 26.112 11.776 26.112 26.112v6.144c0 14.336-11.776 26.112-26.112 26.112H107.52zM834.56 791.04c-11.776 0-22.528-6.656-31.232-11.776-5.632-3.072-12.288-7.168-15.36-7.168-2.56 0-9.216 4.096-14.336 6.656-10.24 6.144-20.48 12.288-32.256 12.288-3.584 0-6.656-0.512-9.728-1.536-15.36-5.12-22.528-20.992-27.648-32.768-2.048-5.12-5.632-12.8-7.68-14.336-2.048-1.536-11.264-2.56-15.872-3.072-13.312-1.536-30.208-3.072-39.424-16.384-9.216-12.8-6.144-29.184-3.072-41.984 1.024-5.632 3.072-14.336 2.048-16.896-1.024-2.56-7.68-8.704-10.752-11.264-10.24-9.216-22.528-20.48-22.528-37.376s13.312-28.672 23.04-37.376c4.096-3.584 9.728-8.704 10.752-11.264 1.024-2.56-1.024-11.776-2.048-16.384-2.56-13.312-6.144-29.696 3.072-42.496 9.728-13.312 26.112-14.848 39.424-16.384 5.632-0.512 13.824-1.536 15.872-3.072 2.048-1.536 5.12-9.216 7.168-13.824 5.12-12.288 12.288-28.16 28.16-33.28 14.848-4.608 29.184 3.072 40.96 10.24 5.12 3.072 12.288 7.168 15.36 7.168 3.072 0 9.728-4.096 14.848-7.168 12.288-7.168 27.136-14.848 40.96-10.24 15.872 5.12 22.528 20.48 27.648 32.768 2.048 5.12 5.632 12.8 7.68 14.336 2.048 1.536 10.24 2.56 15.36 3.072 13.824 1.536 30.72 3.072 40.448 16.384 9.728 13.312 6.144 30.208 3.072 42.496-1.536 6.144-3.072 13.824-2.048 16.384 0.512 2.048 7.68 8.704 10.752 11.264 10.24 9.216 22.528 20.48 22.528 37.376s-12.8 28.16-22.528 36.864c-3.072 2.56-10.24 8.704-10.752 11.264-1.024 2.56 1.024 11.776 2.048 16.384 2.56 12.288 6.656 29.184-3.072 42.496-9.728 13.312-26.112 14.848-39.424 16.384-4.608 0.512-14.336 1.536-16.384 3.072-2.048 1.536-5.632 9.728-7.168 13.824-5.632 13.312-12.288 28.672-28.16 33.792-3.072 1.024-6.656 1.536-9.728 1.536z m-87.552-38.4z m88.064-2.048z m-159.744-52.736c3.072 0.512 6.656 1.024 9.216 1.024 13.824 1.536 25.088 3.072 35.328 10.24 11.264 8.192 16.384 20.48 20.992 30.208 1.024 2.56 2.56 6.144 4.096 9.216 2.56-1.536 5.12-3.072 7.68-4.096 11.264-6.144 22.016-12.8 35.84-12.8s25.088 6.656 34.816 12.288c2.56 1.536 5.632 3.072 8.192 4.608 1.536-2.56 2.56-6.144 3.584-8.192 4.608-10.752 10.24-23.552 20.992-31.232 9.728-7.168 21.504-8.704 35.328-10.24 2.56-0.512 6.144-0.512 9.216-1.024-0.512-3.072-1.024-6.656-2.048-9.216-2.56-10.752-5.12-24.576-1.024-37.376 3.584-11.776 12.288-19.968 22.528-28.672 2.048-2.048 5.632-5.12 7.68-7.168-2.048-2.56-5.632-5.12-7.68-7.168-9.728-8.704-18.432-17.408-22.528-28.672-4.096-12.8-1.536-25.6 1.024-36.864 0.512-3.072 1.536-6.656 2.048-9.728-3.072-0.512-6.656-1.024-9.216-1.024-11.776-1.024-25.088-2.56-35.328-10.752-10.752-7.68-15.872-19.968-20.48-29.696-1.024-3.072-3.072-6.656-4.096-9.216-2.56 1.024-5.12 3.072-7.168 4.096-10.752 6.144-22.016 12.8-35.84 12.8s-25.6-6.656-35.328-12.8c-2.048-1.024-5.12-3.072-7.68-4.096-1.536 2.56-3.072 6.144-4.096 8.704-4.608 10.752-10.24 22.528-20.48 30.72-11.264 8.192-24.064 9.216-35.328 10.752-3.072 0.512-6.656 0.512-9.728 1.024 0.512 3.072 1.024 6.656 1.536 9.216 3.072 13.824 5.12 25.6 1.024 37.376-4.096 12.288-13.824 21.504-21.504 28.672-2.56 2.56-6.144 5.632-8.192 7.68 2.048 2.56 5.632 5.12 7.68 7.168 10.24 9.216 18.432 17.408 22.528 29.184 4.096 12.8 1.024 26.112-1.024 36.864-1.536 1.536-2.048 5.632-2.56 8.192z m225.28 4.608z m-229.376-5.632z m-25.088-78.848z m0-5.632z m24.576-78.848z m233.984 0z m-4.096-5.632z m-153.6-50.176z m40.96 233.984c-52.736 0-95.744-43.52-95.744-96.256 0-53.248 43.008-96.256 95.744-96.256 52.736 0 95.744 43.008 95.744 96.256 0 52.736-43.008 96.256-95.744 96.256z m0-152.576c-30.72 0-55.808 25.088-55.808 56.32s25.088 56.32 55.808 56.32 55.808-25.088 55.808-56.32-25.088-56.32-55.808-56.32zM715.264 1018.88c-2.56 0-5.632-0.512-8.192-1.536-7.168-3.072-12.288-10.24-12.288-18.432v-150.528c0-7.168 3.584-13.824 9.728-17.408 6.144-3.584 13.824-3.584 19.968-0.512 2.048 1.024 4.096 2.048 6.144 2.56 3.072 1.024 6.656 1.536 10.752 1.536 12.288 0 23.04-6.144 32.768-11.776l4.096-2.048c6.144-3.584 13.824-3.584 19.968 0l3.584 2.048c9.728 5.632 20.48 11.776 32.768 11.776 3.584 0 7.168-0.512 10.752-1.536 2.048-0.512 4.096-1.536 5.632-2.56 6.144-3.584 13.824-3.072 19.968 0.512 6.144 3.584 9.728 10.24 9.728 17.408V998.4c0 8.192-4.608 15.36-12.288 18.432-7.168 3.072-15.872 1.536-21.504-3.584l-58.88-54.784-58.88 54.784c-4.096 3.584-8.704 5.632-13.824 5.632z m19.968-143.872v77.824l38.912-35.84c7.68-7.168 19.456-7.168 27.136 0l38.912 35.84v-77.824c-20.992 1.536-39.936-6.144-52.736-13.312-12.8 7.168-31.232 14.848-52.224 13.312zM210.432 595.456h346.112v59.392H210.432v-59.392zM210.432 430.08h346.112v59.392H210.432V430.08zM210.432 264.704h446.464v59.392H210.432V264.704z" /></svg>